<mxfile host="app.diagrams.net" modified="2023-07-29T11:05:55.468Z" agent="Mozilla/5.0 (Windows NT 10.0; Win64; x64) AppleWebKit/537.36 (KHTML, like Gecko) Chrome/115.0.0.0 Safari/537.36" etag="9_qpuiDYOzAB7hVKwMHJ" version="21.6.2" type="github">
  <diagram name="Page-1" id="7T87YtwwjkjDopiV0FKy">
    <mxGraphModel dx="1707" dy="1639" grid="1" gridSize="10" guides="1" tooltips="1" connect="1" arrows="1" fold="1" page="1" pageScale="1" pageWidth="827" pageHeight="1169" math="0" shadow="0">
      <root>
        <mxCell id="0" />
        <mxCell id="1" parent="0" />
        <mxCell id="Ibm3mERoiWyxqdfLu7A_-1" value="VPC" style="points=[[0,0],[0.25,0],[0.5,0],[0.75,0],[1,0],[1,0.25],[1,0.5],[1,0.75],[1,1],[0.75,1],[0.5,1],[0.25,1],[0,1],[0,0.75],[0,0.5],[0,0.25]];outlineConnect=0;gradientColor=none;html=1;whiteSpace=wrap;fontSize=12;fontStyle=0;container=1;pointerEvents=0;collapsible=0;recursiveResize=0;shape=mxgraph.aws4.group;grIcon=mxgraph.aws4.group_vpc;strokeColor=#248814;fillColor=none;verticalAlign=top;align=left;spacingLeft=30;fontColor=#AAB7B8;dashed=0;" vertex="1" parent="1">
          <mxGeometry x="30" y="40" width="820" height="440" as="geometry" />
        </mxCell>
        <mxCell id="Ibm3mERoiWyxqdfLu7A_-2" value="Availability zone" style="sketch=0;outlineConnect=0;gradientColor=none;html=1;whiteSpace=wrap;fontSize=12;fontStyle=0;shape=mxgraph.aws4.group;grIcon=mxgraph.aws4.group_availability_zone;strokeColor=#545B64;fillColor=none;verticalAlign=top;align=left;spacingLeft=30;fontColor=#545B64;dashed=1;" vertex="1" parent="Ibm3mERoiWyxqdfLu7A_-1">
          <mxGeometry x="50" y="30" width="746" height="160" as="geometry" />
        </mxCell>
        <mxCell id="Ibm3mERoiWyxqdfLu7A_-3" value="Availability zone" style="sketch=0;outlineConnect=0;gradientColor=none;html=1;whiteSpace=wrap;fontSize=12;fontStyle=0;shape=mxgraph.aws4.group;grIcon=mxgraph.aws4.group_availability_zone;strokeColor=#545B64;fillColor=none;verticalAlign=top;align=left;spacingLeft=30;fontColor=#545B64;dashed=1;" vertex="1" parent="Ibm3mERoiWyxqdfLu7A_-1">
          <mxGeometry x="56" y="230" width="740" height="190" as="geometry" />
        </mxCell>
        <mxCell id="Ibm3mERoiWyxqdfLu7A_-10" value="Public subnet" style="points=[[0,0],[0.25,0],[0.5,0],[0.75,0],[1,0],[1,0.25],[1,0.5],[1,0.75],[1,1],[0.75,1],[0.5,1],[0.25,1],[0,1],[0,0.75],[0,0.5],[0,0.25]];outlineConnect=0;gradientColor=none;html=1;whiteSpace=wrap;fontSize=12;fontStyle=0;container=1;pointerEvents=0;collapsible=0;recursiveResize=0;shape=mxgraph.aws4.group;grIcon=mxgraph.aws4.group_security_group;grStroke=0;strokeColor=#248814;fillColor=#E9F3E6;verticalAlign=top;align=left;spacingLeft=30;fontColor=#248814;dashed=0;" vertex="1" parent="Ibm3mERoiWyxqdfLu7A_-1">
          <mxGeometry x="111" y="56" width="159" height="114" as="geometry" />
        </mxCell>
        <mxCell id="Ibm3mERoiWyxqdfLu7A_-13" value="Public subnet" style="points=[[0,0],[0.25,0],[0.5,0],[0.75,0],[1,0],[1,0.25],[1,0.5],[1,0.75],[1,1],[0.75,1],[0.5,1],[0.25,1],[0,1],[0,0.75],[0,0.5],[0,0.25]];outlineConnect=0;gradientColor=none;html=1;whiteSpace=wrap;fontSize=12;fontStyle=0;container=1;pointerEvents=0;collapsible=0;recursiveResize=0;shape=mxgraph.aws4.group;grIcon=mxgraph.aws4.group_security_group;grStroke=0;strokeColor=#248814;fillColor=#E9F3E6;verticalAlign=top;align=left;spacingLeft=30;fontColor=#248814;dashed=0;" vertex="1" parent="Ibm3mERoiWyxqdfLu7A_-1">
          <mxGeometry x="100" y="280" width="159" height="114" as="geometry" />
        </mxCell>
        <mxCell id="Ibm3mERoiWyxqdfLu7A_-16" value="Private subnet" style="points=[[0,0],[0.25,0],[0.5,0],[0.75,0],[1,0],[1,0.25],[1,0.5],[1,0.75],[1,1],[0.75,1],[0.5,1],[0.25,1],[0,1],[0,0.75],[0,0.5],[0,0.25]];outlineConnect=0;gradientColor=none;html=1;whiteSpace=wrap;fontSize=12;fontStyle=0;container=1;pointerEvents=0;collapsible=0;recursiveResize=0;shape=mxgraph.aws4.group;grIcon=mxgraph.aws4.group_security_group;grStroke=0;strokeColor=#147EBA;fillColor=#E6F2F8;verticalAlign=top;align=left;spacingLeft=30;fontColor=#147EBA;dashed=0;" vertex="1" parent="Ibm3mERoiWyxqdfLu7A_-1">
          <mxGeometry x="333" y="56" width="167" height="114" as="geometry" />
        </mxCell>
        <mxCell id="Ibm3mERoiWyxqdfLu7A_-17" value="Private subnet" style="points=[[0,0],[0.25,0],[0.5,0],[0.75,0],[1,0],[1,0.25],[1,0.5],[1,0.75],[1,1],[0.75,1],[0.5,1],[0.25,1],[0,1],[0,0.75],[0,0.5],[0,0.25]];outlineConnect=0;gradientColor=none;html=1;whiteSpace=wrap;fontSize=12;fontStyle=0;container=1;pointerEvents=0;collapsible=0;recursiveResize=0;shape=mxgraph.aws4.group;grIcon=mxgraph.aws4.group_security_group;grStroke=0;strokeColor=#147EBA;fillColor=#E6F2F8;verticalAlign=top;align=left;spacingLeft=30;fontColor=#147EBA;dashed=0;" vertex="1" parent="Ibm3mERoiWyxqdfLu7A_-1">
          <mxGeometry x="570" y="56" width="167" height="114" as="geometry" />
        </mxCell>
        <mxCell id="Ibm3mERoiWyxqdfLu7A_-18" value="Private subnet" style="points=[[0,0],[0.25,0],[0.5,0],[0.75,0],[1,0],[1,0.25],[1,0.5],[1,0.75],[1,1],[0.75,1],[0.5,1],[0.25,1],[0,1],[0,0.75],[0,0.5],[0,0.25]];outlineConnect=0;gradientColor=none;html=1;whiteSpace=wrap;fontSize=12;fontStyle=0;container=1;pointerEvents=0;collapsible=0;recursiveResize=0;shape=mxgraph.aws4.group;grIcon=mxgraph.aws4.group_security_group;grStroke=0;strokeColor=#147EBA;fillColor=#E6F2F8;verticalAlign=top;align=left;spacingLeft=30;fontColor=#147EBA;dashed=0;" vertex="1" parent="Ibm3mERoiWyxqdfLu7A_-1">
          <mxGeometry x="326.5" y="280" width="167" height="114" as="geometry" />
        </mxCell>
        <mxCell id="Ibm3mERoiWyxqdfLu7A_-19" value="Private subnet" style="points=[[0,0],[0.25,0],[0.5,0],[0.75,0],[1,0],[1,0.25],[1,0.5],[1,0.75],[1,1],[0.75,1],[0.5,1],[0.25,1],[0,1],[0,0.75],[0,0.5],[0,0.25]];outlineConnect=0;gradientColor=none;html=1;whiteSpace=wrap;fontSize=12;fontStyle=0;container=1;pointerEvents=0;collapsible=0;recursiveResize=0;shape=mxgraph.aws4.group;grIcon=mxgraph.aws4.group_security_group;grStroke=0;strokeColor=#147EBA;fillColor=#E6F2F8;verticalAlign=top;align=left;spacingLeft=30;fontColor=#147EBA;dashed=0;" vertex="1" parent="Ibm3mERoiWyxqdfLu7A_-1">
          <mxGeometry x="570" y="280" width="167" height="114" as="geometry" />
        </mxCell>
        <mxCell id="Ibm3mERoiWyxqdfLu7A_-26" value="" style="rounded=1;arcSize=10;dashed=0;fillColor=none;gradientColor=none;strokeWidth=2;" vertex="1" parent="1">
          <mxGeometry x="-10" y="4" width="890" height="506" as="geometry" />
        </mxCell>
        <mxCell id="Ibm3mERoiWyxqdfLu7A_-27" value="" style="dashed=0;html=1;shape=mxgraph.aws3.cloud;fillColor=#F58536;gradientColor=none;dashed=0;" vertex="1" parent="1">
          <mxGeometry x="96" y="-16" width="52" height="36" as="geometry" />
        </mxCell>
        <mxCell id="Ibm3mERoiWyxqdfLu7A_-59" style="edgeStyle=orthogonalEdgeStyle;rounded=0;orthogonalLoop=1;jettySize=auto;html=1;exitX=1;exitY=0.5;exitDx=0;exitDy=0;exitPerimeter=0;entryX=0;entryY=0.5;entryDx=0;entryDy=0;entryPerimeter=0;" edge="1" parent="1" source="Ibm3mERoiWyxqdfLu7A_-28" target="Ibm3mERoiWyxqdfLu7A_-41">
          <mxGeometry relative="1" as="geometry" />
        </mxCell>
        <mxCell id="Ibm3mERoiWyxqdfLu7A_-28" value="" style="outlineConnect=0;dashed=0;verticalLabelPosition=bottom;verticalAlign=top;align=center;html=1;shape=mxgraph.aws3.internet_gateway;fillColor=#F58534;gradientColor=none;" vertex="1" parent="1">
          <mxGeometry x="-10" y="210" width="69" height="72" as="geometry" />
        </mxCell>
        <mxCell id="Ibm3mERoiWyxqdfLu7A_-50" style="edgeStyle=orthogonalEdgeStyle;rounded=0;orthogonalLoop=1;jettySize=auto;html=1;" edge="1" parent="1" source="Ibm3mERoiWyxqdfLu7A_-30" target="Ibm3mERoiWyxqdfLu7A_-28">
          <mxGeometry relative="1" as="geometry" />
        </mxCell>
        <mxCell id="Ibm3mERoiWyxqdfLu7A_-30" value="" style="outlineConnect=0;dashed=0;verticalLabelPosition=bottom;verticalAlign=top;align=center;html=1;shape=mxgraph.aws3.vpc_nat_gateway;fillColor=#F58536;gradientColor=none;" vertex="1" parent="1">
          <mxGeometry x="180" y="120" width="50" height="50" as="geometry" />
        </mxCell>
        <mxCell id="Ibm3mERoiWyxqdfLu7A_-52" style="edgeStyle=orthogonalEdgeStyle;rounded=0;orthogonalLoop=1;jettySize=auto;html=1;exitX=0;exitY=0.5;exitDx=0;exitDy=0;exitPerimeter=0;" edge="1" parent="1" source="Ibm3mERoiWyxqdfLu7A_-31" target="Ibm3mERoiWyxqdfLu7A_-28">
          <mxGeometry relative="1" as="geometry" />
        </mxCell>
        <mxCell id="Ibm3mERoiWyxqdfLu7A_-31" value="" style="outlineConnect=0;dashed=0;verticalLabelPosition=bottom;verticalAlign=top;align=center;html=1;shape=mxgraph.aws3.vpc_nat_gateway;fillColor=#F58536;gradientColor=none;" vertex="1" parent="1">
          <mxGeometry x="170" y="360" width="50" height="50" as="geometry" />
        </mxCell>
        <mxCell id="Ibm3mERoiWyxqdfLu7A_-54" style="edgeStyle=orthogonalEdgeStyle;rounded=0;orthogonalLoop=1;jettySize=auto;html=1;" edge="1" parent="1" source="Ibm3mERoiWyxqdfLu7A_-35" target="Ibm3mERoiWyxqdfLu7A_-31">
          <mxGeometry relative="1" as="geometry" />
        </mxCell>
        <mxCell id="Ibm3mERoiWyxqdfLu7A_-71" style="edgeStyle=orthogonalEdgeStyle;rounded=0;orthogonalLoop=1;jettySize=auto;html=1;exitX=0.57;exitY=0.5;exitDx=0;exitDy=0;exitPerimeter=0;" edge="1" parent="1" source="Ibm3mERoiWyxqdfLu7A_-35">
          <mxGeometry relative="1" as="geometry">
            <mxPoint x="560" y="210" as="targetPoint" />
          </mxGeometry>
        </mxCell>
        <mxCell id="Ibm3mERoiWyxqdfLu7A_-35" value="" style="sketch=0;aspect=fixed;pointerEvents=1;shadow=0;dashed=0;html=1;strokeColor=none;labelPosition=center;verticalLabelPosition=bottom;verticalAlign=top;align=center;fillColor=#00188D;shape=mxgraph.mscae.enterprise.application_server2" vertex="1" parent="1">
          <mxGeometry x="410" y="360" width="53" height="61.63" as="geometry" />
        </mxCell>
        <mxCell id="Ibm3mERoiWyxqdfLu7A_-42" value="" style="edgeStyle=orthogonalEdgeStyle;rounded=0;orthogonalLoop=1;jettySize=auto;html=1;" edge="1" parent="1" source="Ibm3mERoiWyxqdfLu7A_-36" target="Ibm3mERoiWyxqdfLu7A_-30">
          <mxGeometry relative="1" as="geometry" />
        </mxCell>
        <mxCell id="Ibm3mERoiWyxqdfLu7A_-65" style="edgeStyle=orthogonalEdgeStyle;rounded=0;orthogonalLoop=1;jettySize=auto;html=1;exitX=0.57;exitY=0.5;exitDx=0;exitDy=0;exitPerimeter=0;entryX=0.82;entryY=0.387;entryDx=0;entryDy=0;entryPerimeter=0;" edge="1" parent="1" source="Ibm3mERoiWyxqdfLu7A_-36" target="Ibm3mERoiWyxqdfLu7A_-26">
          <mxGeometry relative="1" as="geometry" />
        </mxCell>
        <mxCell id="Ibm3mERoiWyxqdfLu7A_-36" value="" style="sketch=0;aspect=fixed;pointerEvents=1;shadow=0;dashed=0;html=1;strokeColor=none;labelPosition=center;verticalLabelPosition=bottom;verticalAlign=top;align=center;fillColor=#00188D;shape=mxgraph.mscae.enterprise.application_server2" vertex="1" parent="1">
          <mxGeometry x="414" y="130" width="53" height="61.63" as="geometry" />
        </mxCell>
        <mxCell id="Ibm3mERoiWyxqdfLu7A_-38" value="" style="outlineConnect=0;dashed=0;verticalLabelPosition=bottom;verticalAlign=top;align=center;html=1;shape=mxgraph.aws3.rds;fillColor=#2E73B8;gradientColor=none;" vertex="1" parent="1">
          <mxGeometry x="670" y="355" width="50" height="55" as="geometry" />
        </mxCell>
        <mxCell id="Ibm3mERoiWyxqdfLu7A_-39" value="" style="outlineConnect=0;dashed=0;verticalLabelPosition=bottom;verticalAlign=top;align=center;html=1;shape=mxgraph.aws3.rds;fillColor=#2E73B8;gradientColor=none;" vertex="1" parent="1">
          <mxGeometry x="670" y="134.63" width="50" height="55" as="geometry" />
        </mxCell>
        <mxCell id="Ibm3mERoiWyxqdfLu7A_-57" value="" style="edgeStyle=orthogonalEdgeStyle;rounded=0;orthogonalLoop=1;jettySize=auto;html=1;" edge="1" parent="1" source="Ibm3mERoiWyxqdfLu7A_-41" target="Ibm3mERoiWyxqdfLu7A_-31">
          <mxGeometry relative="1" as="geometry" />
        </mxCell>
        <mxCell id="Ibm3mERoiWyxqdfLu7A_-58" style="edgeStyle=orthogonalEdgeStyle;rounded=0;orthogonalLoop=1;jettySize=auto;html=1;exitX=0.855;exitY=0.145;exitDx=0;exitDy=0;exitPerimeter=0;" edge="1" parent="1" source="Ibm3mERoiWyxqdfLu7A_-41" target="Ibm3mERoiWyxqdfLu7A_-30">
          <mxGeometry relative="1" as="geometry" />
        </mxCell>
        <mxCell id="Ibm3mERoiWyxqdfLu7A_-72" style="edgeStyle=orthogonalEdgeStyle;rounded=0;orthogonalLoop=1;jettySize=auto;html=1;exitX=1;exitY=0.5;exitDx=0;exitDy=0;exitPerimeter=0;entryX=0.075;entryY=0.714;entryDx=0;entryDy=0;entryPerimeter=0;" edge="1" parent="1" source="Ibm3mERoiWyxqdfLu7A_-41" target="Ibm3mERoiWyxqdfLu7A_-36">
          <mxGeometry relative="1" as="geometry" />
        </mxCell>
        <mxCell id="Ibm3mERoiWyxqdfLu7A_-74" style="edgeStyle=orthogonalEdgeStyle;rounded=0;orthogonalLoop=1;jettySize=auto;html=1;exitX=1;exitY=0.5;exitDx=0;exitDy=0;exitPerimeter=0;entryX=0.551;entryY=0.644;entryDx=0;entryDy=0;entryPerimeter=0;" edge="1" parent="1" source="Ibm3mERoiWyxqdfLu7A_-41" target="Ibm3mERoiWyxqdfLu7A_-26">
          <mxGeometry relative="1" as="geometry" />
        </mxCell>
        <mxCell id="Ibm3mERoiWyxqdfLu7A_-41" value="" style="outlineConnect=0;dashed=0;verticalLabelPosition=bottom;verticalAlign=top;align=center;html=1;shape=mxgraph.aws3.application_load_balancer;fillColor=#F58536;gradientColor=none;" vertex="1" parent="1">
          <mxGeometry x="96" y="210" width="69" height="72" as="geometry" />
        </mxCell>
        <mxCell id="Ibm3mERoiWyxqdfLu7A_-60" value="" style="outlineConnect=0;dashed=0;verticalLabelPosition=bottom;verticalAlign=top;align=center;html=1;shape=mxgraph.aws3.route_53;fillColor=#F58536;gradientColor=none;" vertex="1" parent="1">
          <mxGeometry x="740" y="-40.75" width="70.5" height="85.5" as="geometry" />
        </mxCell>
        <mxCell id="Ibm3mERoiWyxqdfLu7A_-61" value="" style="shape=image;html=1;verticalAlign=top;verticalLabelPosition=bottom;labelBackgroundColor=#ffffff;imageAspect=0;aspect=fixed;image=https://cdn2.iconfinder.com/data/icons/whcompare-servers-web-hosting/50/ssl-certificate-128.png" vertex="1" parent="1">
          <mxGeometry x="560" width="80" height="80" as="geometry" />
        </mxCell>
        <mxCell id="Ibm3mERoiWyxqdfLu7A_-67" style="edgeStyle=orthogonalEdgeStyle;rounded=0;orthogonalLoop=1;jettySize=auto;html=1;exitX=0.5;exitY=0;exitDx=0;exitDy=0;exitPerimeter=0;entryX=0.292;entryY=0.368;entryDx=0;entryDy=0;entryPerimeter=0;" edge="1" parent="1" source="Ibm3mERoiWyxqdfLu7A_-62" target="Ibm3mERoiWyxqdfLu7A_-26">
          <mxGeometry relative="1" as="geometry" />
        </mxCell>
        <mxCell id="Ibm3mERoiWyxqdfLu7A_-68" style="edgeStyle=orthogonalEdgeStyle;rounded=0;orthogonalLoop=1;jettySize=auto;html=1;exitX=0.5;exitY=1;exitDx=0;exitDy=0;exitPerimeter=0;entryX=0.281;entryY=0.625;entryDx=0;entryDy=0;entryPerimeter=0;" edge="1" parent="1" source="Ibm3mERoiWyxqdfLu7A_-62" target="Ibm3mERoiWyxqdfLu7A_-26">
          <mxGeometry relative="1" as="geometry" />
        </mxCell>
        <mxCell id="Ibm3mERoiWyxqdfLu7A_-62" value="" style="outlineConnect=0;dashed=0;verticalLabelPosition=bottom;verticalAlign=top;align=center;html=1;shape=mxgraph.aws3.route_table;fillColor=#F58536;gradientColor=none;" vertex="1" parent="1">
          <mxGeometry x="230" y="224" width="75" height="72" as="geometry" />
        </mxCell>
        <mxCell id="Ibm3mERoiWyxqdfLu7A_-63" value="" style="sketch=0;outlineConnect=0;fontColor=#232F3E;gradientColor=none;fillColor=#4D27AA;strokeColor=none;dashed=0;verticalLabelPosition=bottom;verticalAlign=top;align=center;html=1;fontSize=12;fontStyle=0;aspect=fixed;pointerEvents=1;shape=mxgraph.aws4.route_table;" vertex="1" parent="1">
          <mxGeometry x="520" y="107" width="78" height="76" as="geometry" />
        </mxCell>
        <mxCell id="Ibm3mERoiWyxqdfLu7A_-64" value="" style="sketch=0;outlineConnect=0;fontColor=#232F3E;gradientColor=none;fillColor=#4D27AA;strokeColor=none;dashed=0;verticalLabelPosition=bottom;verticalAlign=top;align=center;html=1;fontSize=12;fontStyle=0;aspect=fixed;pointerEvents=1;shape=mxgraph.aws4.route_table;" vertex="1" parent="1">
          <mxGeometry x="520" y="330" width="78" height="76" as="geometry" />
        </mxCell>
        <mxCell id="Ibm3mERoiWyxqdfLu7A_-69" value="" style="outlineConnect=0;dashed=0;verticalLabelPosition=bottom;verticalAlign=top;align=center;html=1;shape=mxgraph.aws3.cloudwatch;fillColor=#759C3E;gradientColor=none;" vertex="1" parent="1">
          <mxGeometry x="360" y="-30" width="82.5" height="93" as="geometry" />
        </mxCell>
      </root>
    </mxGraphModel>
  </diagram>
</mxfile>
